<svg width="138" height="13" viewBox="0 0 138 13" fill="none" xmlns="http://www.w3.org/2000/svg">
<mask id="mask0_0_40141" style="mask-type:luminance" maskUnits="userSpaceOnUse" x="0" y="0" width="139" height="13">
<path d="M138.517 0H0V12.4045H138.517V0Z" fill="white"/>
</mask>
<g mask="url(#mask0_0_40141)">
<path fill-rule="evenodd" clip-rule="evenodd" d="M5.61205 2.50128e-06C5.63642 3.37546e-06 5.66086 5.13258e-06 5.68538 5.13258e-06C5.70992 5.13258e-06 5.73437 3.37546e-06 5.75873 2.50128e-06C6.77525 -4.99493e-05 7.64736 -9.45315e-05 8.34495 0.0911336C9.09107 0.188711 9.80101 0.408063 10.3761 0.967499C10.9513 1.52694 11.1767 2.21744 11.2771 2.94321C11.3709 3.62175 11.3708 4.47004 11.3708 5.45881V10.8113C11.3708 11.4057 10.8754 11.8876 10.2642 11.8876C9.65306 11.8876 9.15766 11.4057 9.15766 10.8113V5.53015C9.15766 4.44995 9.15528 3.74808 9.08368 3.23005C9.01639 2.74299 8.90661 2.58248 8.81117 2.48968C8.71581 2.39686 8.55079 2.29009 8.05006 2.22461C7.51749 2.15496 6.79592 2.15268 5.68538 2.15268C4.57486 2.15268 3.85329 2.15496 3.32072 2.22461C2.81999 2.29009 2.65497 2.39686 2.55956 2.48968C2.46415 2.58248 2.35438 2.74299 2.28706 3.23005C2.21546 3.74808 2.21311 4.44995 2.21311 5.53015V10.8113C2.21311 11.4057 1.71769 11.8876 1.10656 11.8876C0.495425 11.8876 5.09519e-06 11.4057 5.09519e-06 10.8113V5.53015C5.09519e-06 5.50629 3.82157e-06 5.48251 2.54795e-06 5.45881C-5.10353e-05 4.47004 -9.6975e-05 3.62175 0.0936921 2.94321C0.194009 2.21744 0.419518 1.52694 0.994659 0.967499C1.5698 0.408063 2.27969 0.188711 3.02583 0.0911336C3.72342 -9.45315e-05 4.59552 -4.99493e-05 5.61205 2.50128e-06Z" fill="#D93B33"/>
<path fill-rule="evenodd" clip-rule="evenodd" d="M13.4375 1.83174C13.4375 0.820099 14.294 0 15.3506 0H20.8166C22.7357 0 24.2914 1.48957 24.2914 3.32704V4.54912C24.2914 6.38659 22.7357 7.87615 20.8166 7.87615H15.702V10.8035C15.702 11.4022 15.1951 11.8876 14.5698 11.8876C13.9444 11.8876 13.4375 11.4022 13.4375 10.8035V1.83174ZM15.702 5.70798H20.8166C21.4851 5.70798 22.0269 5.18913 22.0269 4.54912V3.32704C22.0269 2.68702 21.4851 2.16818 20.8166 2.16818H15.702V5.70798Z" fill="#D93B33"/>
<path fill-rule="evenodd" clip-rule="evenodd" d="M102.336 1.83174C102.336 0.820096 103.193 0 104.249 0H109.715C111.634 0 113.19 1.48956 113.19 3.32703V4.54912C113.19 6.38659 111.634 7.87615 109.715 7.87615H104.6V10.8035C104.6 11.4022 104.094 11.8876 103.468 11.8876C102.843 11.8876 102.336 11.4022 102.336 10.8035V1.83174ZM104.6 5.70798H109.715C110.383 5.70798 110.925 5.18914 110.925 4.54912V3.32703C110.925 2.68702 110.383 2.16818 109.715 2.16818H104.6V5.70798Z" fill="#2F6EBA"/>
<path fill-rule="evenodd" clip-rule="evenodd" d="M129.779 2.60373e-05L129.727 1.27853e-05C129.413 -0.000102137 129.077 -0.00022502 128.795 0.037215C128.464 0.0809246 128.045 0.192815 127.694 0.538691C127.343 0.884568 127.229 1.29598 127.184 1.62109C127.146 1.89956 127.146 2.23015 127.146 2.539V2.58981V5.53643C127.146 5.53911 127.146 5.5418 127.146 5.5445C127.146 5.54674 127.146 5.549 127.146 5.55125V10.7991C127.146 11.4003 127.642 11.8875 128.253 11.8875C128.31 11.8875 128.367 11.8833 128.421 11.8752C128.476 11.8833 128.532 11.8875 128.589 11.8875H134.739L134.803 11.8876C135.095 11.8877 135.342 11.8879 135.564 11.859C137.088 11.6617 138.288 10.4821 138.488 8.98318C138.517 8.76394 138.517 8.52069 138.517 8.23391V8.17183V8.10976C138.517 7.82297 138.517 7.57974 138.488 7.36049C138.38 6.55442 137.983 5.84072 137.403 5.32246C137.862 4.77579 138.136 4.07555 138.136 3.29249C138.136 1.44762 136.616 2.60373e-05 134.739 2.60373e-05H129.779ZM129.36 6.53514V9.71064H134.739C135.129 9.71064 135.217 9.70834 135.276 9.70074C135.806 9.63196 136.224 9.22116 136.294 8.69905C136.302 8.64124 136.304 8.55503 136.304 8.17182C136.304 7.78859 136.302 7.70239 136.294 7.64461C136.224 7.1225 135.806 6.61384 135.276 6.54509C135.217 6.53748 135.129 6.53514 134.739 6.53514H129.36ZM134.739 4.45602H129.36V2.58981C129.36 2.42373 129.36 2.29227 129.362 2.17934C129.477 2.17701 129.61 2.17694 129.779 2.17694H134.739C135.393 2.17694 135.922 2.6499 135.922 3.29249C135.922 3.93509 135.393 4.45602 134.739 4.45602Z" fill="#2F6EBA"/>
<path fill-rule="evenodd" clip-rule="evenodd" d="M57.8238 1.66714e-06C57.8453 2.53758e-06 57.8669 4.27424e-06 57.8885 4.27424e-06C57.9102 4.27424e-06 57.9317 2.53758e-06 57.9533 1.66714e-06C58.8573 -3.40211e-05 59.6334 -6.53525e-05 60.2627 0.0647653C60.9308 0.133602 61.5783 0.286831 62.1497 0.687526C62.4021 0.864523 62.628 1.071 62.8217 1.30167C63.2601 1.82387 63.4277 2.41574 63.503 3.02634C63.574 3.60141 63.5739 4.31071 63.5739 5.13697V6.75067C63.5739 7.57693 63.574 8.28623 63.503 8.86128C63.4277 9.4719 63.2601 10.0638 62.8217 10.586C62.628 10.8166 62.4021 11.0231 62.1497 11.2001C61.5783 11.6008 60.9308 11.754 60.2627 11.8229C59.6334 11.8877 58.8573 11.8876 57.9533 11.8876H57.8238C56.9197 11.8876 56.1436 11.8877 55.5144 11.8229C54.8464 11.754 54.1987 11.6008 53.6274 11.2001C53.375 11.0231 53.1491 10.8166 52.9554 10.586C52.517 10.0638 52.3493 9.4719 52.274 8.86128C52.2031 8.28623 52.2031 7.57692 52.2031 6.75066V5.19617C52.2031 5.17638 52.2031 5.15665 52.2031 5.13698C52.2031 4.31071 52.2031 3.60142 52.274 3.02634C52.3493 2.41574 52.517 1.82387 52.9554 1.30167C53.1491 1.071 53.375 0.864523 53.6274 0.687526C54.1987 0.286831 54.8464 0.133602 55.5144 0.0647653C56.1436 -6.53525e-05 56.9197 -3.40211e-05 57.8238 1.66714e-06ZM55.6248 2.2193C55.1683 2.26634 55.0057 2.34486 54.9162 2.40766C54.8282 2.46932 54.7496 2.54123 54.6821 2.62157C54.6134 2.70342 54.5274 2.85199 54.476 3.26924C54.4218 3.70832 54.42 4.29412 54.42 5.19617V6.69147C54.42 7.59352 54.4218 8.17932 54.476 8.61843C54.5274 9.03563 54.6134 9.18422 54.6821 9.26604C54.7496 9.34638 54.8282 9.41837 54.9162 9.47999C55.0057 9.54275 55.1683 9.62127 55.6248 9.66836C56.1052 9.7178 56.9016 9.71945 57.8885 9.71945C58.8755 9.71945 59.7337 9.7178 60.2142 9.66836C60.6707 9.62127 60.8333 9.54275 60.9228 9.47999C61.0108 9.41837 61.0894 9.34638 61.1569 9.26604C61.2256 9.18422 61.3115 9.03563 61.363 8.61843C61.4171 8.17932 61.4189 7.59352 61.4189 6.69147V5.19617C61.4189 4.29412 61.4171 3.70832 61.363 3.26924C61.3115 2.85199 61.2256 2.70342 61.1569 2.62157C61.0894 2.54123 61.0108 2.46932 60.9228 2.40766C60.8333 2.34486 60.6707 2.26634 60.2142 2.2193C59.7337 2.1698 58.8755 2.16819 57.8885 2.16819C56.9016 2.16819 56.1052 2.1698 55.6248 2.2193Z" fill="#2F6EBA"/>
<path fill-rule="evenodd" clip-rule="evenodd" d="M30.9468 1.66714e-06C30.9683 2.53758e-06 30.99 4.27424e-06 31.0116 4.27424e-06C31.0333 4.27424e-06 31.0548 2.53758e-06 31.0763 1.66714e-06C31.9804 -3.40211e-05 32.7565 -6.53525e-05 33.3857 0.0647653C34.0538 0.133602 34.7014 0.286831 35.2727 0.687526C35.5251 0.864523 35.751 1.071 35.9447 1.30167C36.3832 1.82387 36.5508 2.41574 36.6262 3.02634C36.697 3.60141 36.697 4.31071 36.697 5.13697V6.75067C36.697 7.57693 36.697 8.28623 36.6262 8.86128C36.5508 9.4719 36.3832 10.0638 35.9447 10.586C35.751 10.8166 35.5251 11.0231 35.2727 11.2001C34.7014 11.6008 34.0538 11.754 33.3857 11.8229C32.7565 11.8877 31.9804 11.8876 31.0763 11.8876H30.9468C30.0427 11.8876 29.2666 11.8877 28.6374 11.8229C27.9693 11.754 27.3218 11.6008 26.7504 11.2001C26.498 11.0231 26.2721 10.8166 26.0784 10.586C25.64 10.0638 25.4723 9.4719 25.397 8.86128C25.3261 8.28623 25.3261 7.57692 25.3262 6.75066V5.19617C25.3262 5.17638 25.3262 5.15665 25.3262 5.13698C25.3261 4.31071 25.3261 3.60142 25.397 3.02634C25.4723 2.41574 25.64 1.82387 26.0784 1.30167C26.2721 1.071 26.498 0.864523 26.7504 0.687526C27.3218 0.286831 27.9693 0.133602 28.6374 0.0647653C29.2666 -6.53525e-05 30.0427 -3.40211e-05 30.9468 1.66714e-06ZM28.7478 2.2193C28.2913 2.26634 28.1287 2.34486 28.0392 2.40766C27.9512 2.46932 27.8726 2.54123 27.8051 2.62157C27.7364 2.70342 27.6505 2.85199 27.5991 3.26924C27.5449 3.70832 27.5431 4.29412 27.5431 5.19617V6.69147C27.5431 7.59352 27.5449 8.17932 27.5991 8.61843C27.6505 9.03563 27.7364 9.18422 27.8051 9.26604C27.8726 9.34638 27.9512 9.41837 28.0392 9.47999C28.1287 9.54275 28.2913 9.62127 28.7478 9.66836C29.2283 9.7178 30.0246 9.71945 31.0116 9.71945C31.9985 9.71945 32.8568 9.7178 33.3373 9.66836C33.7938 9.62127 33.9564 9.54275 34.0459 9.47999C34.1338 9.41837 34.2125 9.34638 34.28 9.26604C34.3487 9.18422 34.4346 9.03563 34.486 8.61843C34.5402 8.17932 34.542 7.59352 34.542 6.69147V5.19617C34.542 4.29412 34.5402 3.70832 34.486 3.26924C34.4346 2.85199 34.3487 2.70342 34.28 2.62157C34.2125 2.54123 34.1338 2.46932 34.0459 2.40766C33.9564 2.34486 33.7938 2.26634 33.3373 2.2193C32.8568 2.1698 31.9985 2.16819 31.0116 2.16819C30.0246 2.16819 29.2283 2.1698 28.7478 2.2193Z" fill="#D93B33"/>
<path fill-rule="evenodd" clip-rule="evenodd" d="M95.0385 1.66854e-06C95.0597 2.53898e-06 95.0818 3.4066e-06 95.103 3.4066e-06C95.1251 3.4066e-06 95.1463 2.53898e-06 95.1684 1.66854e-06C96.0718 -3.40196e-05 96.848 -6.62279e-05 97.4774 0.0647652C98.1457 0.133602 98.7936 0.286831 99.3647 0.687524C99.6175 0.864528 99.8429 1.071 100.036 1.30167C100.475 1.82386 100.643 2.41574 100.718 3.02633C100.789 3.6014 100.789 4.3107 100.789 5.13696V6.75066C100.789 7.57693 100.789 8.28622 100.718 8.86129C100.643 9.4719 100.475 10.0638 100.036 10.586C99.8429 10.8166 99.6175 11.0231 99.3647 11.2001C98.7936 11.6008 98.1457 11.754 97.4774 11.8229C96.848 11.8877 96.0718 11.8876 95.1684 11.8876H95.0385C94.1342 11.8876 93.358 11.8877 92.7295 11.8229C92.0612 11.754 91.4133 11.6008 90.8422 11.2001C90.5894 11.0231 90.364 10.8166 90.1704 10.586C89.7319 10.0638 89.564 9.4719 89.4889 8.86129C89.4172 8.28622 89.4173 7.57691 89.4181 6.75064V5.19616C89.4181 5.17637 89.4181 5.15664 89.4181 5.13697C89.4173 4.31071 89.4172 3.60141 89.4889 3.02633C89.564 2.41574 89.7319 1.82386 90.1704 1.30167C90.364 1.071 90.5894 0.864528 90.8422 0.687524C91.4133 0.286831 92.0612 0.133602 92.7295 0.0647652C93.358 -6.62279e-05 94.1342 -3.40196e-05 95.0385 1.66854e-06ZM92.8391 2.2193C92.383 2.26633 92.2204 2.34486 92.1311 2.40766C92.0427 2.46931 91.964 2.54123 91.8968 2.62158C91.8279 2.70343 91.7421 2.85198 91.6908 3.26923C91.6369 3.70832 91.6352 4.29412 91.6352 5.19616V6.69146C91.6352 7.59351 91.6369 8.17931 91.6908 8.61843C91.7421 9.03564 91.8279 9.18422 91.8968 9.26604C91.964 9.34638 92.0427 9.41828 92.1311 9.48C92.2204 9.54276 92.383 9.62127 92.8391 9.66836C93.32 9.7178 94.1165 9.71945 95.103 9.71945C96.0904 9.71945 96.9487 9.7178 97.4288 9.66836C97.8858 9.62127 98.0484 9.54276 98.1377 9.48C98.2261 9.41828 98.3048 9.34638 98.372 9.26604C98.4409 9.18422 98.5267 9.03564 98.5779 8.61843C98.6318 8.17931 98.6336 7.59351 98.6336 6.69146V5.19616C98.6336 4.29412 98.6318 3.70832 98.5779 3.26923C98.5267 2.85198 98.4409 2.70343 98.372 2.62158C98.3048 2.54123 98.2261 2.46931 98.1377 2.40766C98.0484 2.34486 97.8858 2.26633 97.4288 2.2193C96.9487 2.1698 96.0904 2.16818 95.103 2.16818C94.1165 2.16818 93.32 2.1698 92.8391 2.2193Z" fill="#2F6EBA"/>
<path fill-rule="evenodd" clip-rule="evenodd" d="M119.845 1.66714e-06C119.867 2.53759e-06 119.888 3.40521e-06 119.91 3.40521e-06C119.931 3.40521e-06 119.953 2.53759e-06 119.975 1.66714e-06C120.879 -3.40211e-05 121.655 -6.53526e-05 122.284 0.0647654C122.952 0.133602 123.599 0.286832 124.171 0.687528C124.423 0.864528 124.65 1.071 124.843 1.30167C125.282 1.82387 125.449 2.41574 125.525 3.02635C125.595 3.60142 125.595 4.31071 125.595 5.13697V6.75069C125.595 7.57695 125.595 8.28625 125.525 8.86136C125.449 9.47189 125.282 10.0638 124.843 10.586C124.65 10.8166 124.423 11.0231 124.171 11.2002C123.599 11.6008 122.952 11.754 122.284 11.8229C121.655 11.8877 120.879 11.8877 119.975 11.8876H119.845C118.941 11.8877 118.165 11.8877 117.536 11.8229C116.868 11.754 116.221 11.6008 115.649 11.2002C115.397 11.0231 115.17 10.8166 114.977 10.586C114.538 10.0638 114.37 9.47189 114.295 8.86136C114.225 8.28624 114.225 7.57694 114.225 6.75067V5.19618C114.225 5.17639 114.225 5.15666 114.225 5.137C114.225 4.31073 114.225 3.60142 114.295 3.02635C114.37 2.41574 114.538 1.82387 114.977 1.30167C115.17 1.071 115.397 0.864528 115.649 0.687528C116.221 0.286832 116.868 0.133602 117.536 0.0647654C118.165 -6.53526e-05 118.941 -3.40211e-05 119.845 1.66714e-06ZM117.646 2.21931C117.19 2.26635 117.028 2.34486 116.937 2.40766C116.85 2.46932 116.771 2.54123 116.704 2.62158C116.635 2.70343 116.549 2.852 116.497 3.26924C116.443 3.70833 116.441 4.29413 116.441 5.19618V6.69148C116.441 7.59353 116.443 8.17934 116.497 8.61841C116.549 9.03571 116.635 9.1842 116.704 9.26611C116.771 9.34645 116.85 9.41835 116.937 9.47998C117.028 9.54283 117.19 9.62134 117.646 9.66835C118.127 9.71787 118.923 9.71944 119.91 9.71944C120.897 9.71944 121.756 9.71787 122.236 9.66835C122.692 9.62134 122.854 9.54283 122.945 9.47998C123.032 9.41835 123.111 9.34645 123.178 9.26611C123.247 9.1842 123.333 9.03571 123.385 8.61841C123.439 8.17934 123.44 7.59353 123.44 6.69148V5.19618C123.44 4.29413 123.439 3.70833 123.385 3.26924C123.333 2.852 123.247 2.70343 123.178 2.62158C123.111 2.54123 123.032 2.46932 122.945 2.40766C122.854 2.34486 122.692 2.26635 122.236 2.21931C121.756 2.16981 120.897 2.16819 119.91 2.16819C118.923 2.16819 118.127 2.16981 117.646 2.21931Z" fill="#2F6EBA"/>
<path fill-rule="evenodd" clip-rule="evenodd" d="M48.0938 9.79043L44.7079 2.30963L41.3348 9.79043H48.0938ZM50.3691 9.79043L46.2097 0.657432C45.7874 -0.215208 43.6182 -0.222715 43.2013 0.65637L39.0464 9.79043H38.8264C38.2211 9.79043 37.7305 10.2599 37.7305 10.839C37.7305 11.4182 38.2211 11.8876 38.8264 11.8876H50.5896C51.1949 11.8876 51.6855 11.4182 51.6855 10.839C51.6855 10.2599 51.1949 9.79043 50.5896 9.79043H50.3691Z" fill="#2F6EBA"/>
<path fill-rule="evenodd" clip-rule="evenodd" d="M75.182 1.98796L69.5963 5.95658L75.4933 9.88664C75.9963 10.222 76.1283 10.8956 75.7881 11.3914C75.4479 11.8872 74.7643 12.0173 74.2611 11.682L67.9413 7.47007C67.6647 7.28576 67.4585 7.04652 67.3224 6.78026V10.8039C67.3224 11.4025 66.83 11.8876 66.2227 11.8876C65.6154 11.8876 65.123 11.4025 65.123 10.8039V1.08819C65.123 0.489691 65.6154 0.00450956 66.2227 0.00450956C66.83 0.00450956 67.3224 0.489691 67.3224 1.08819V5.12645C67.4613 4.85454 67.6732 4.61099 67.9579 4.42561L73.9696 0.179645C74.4763 -0.150281 75.1585 -0.0129349 75.4933 0.486417C75.8281 0.985767 75.6887 1.65803 75.182 1.98796Z" fill="#2F6EBA"/>
<path fill-rule="evenodd" clip-rule="evenodd" d="M77.0117 1.03371C77.0117 0.462807 77.5071 0 78.1182 0H87.2755C87.8867 0 88.3825 0.462807 88.3825 1.03371C88.3825 1.60461 87.8867 2.06742 87.2755 2.06742H78.1182C77.5071 2.06742 77.0117 1.60461 77.0117 1.03371Z" fill="#2F6EBA"/>
<path fill-rule="evenodd" clip-rule="evenodd" d="M82.6978 0C83.2687 0 83.7315 0.485365 83.7315 1.08409V10.8035C83.7315 11.4022 83.2687 11.8876 82.6978 11.8876C82.1269 11.8876 81.6641 11.4022 81.6641 10.8035V1.08409C81.6641 0.485365 82.1269 0 82.6978 0Z" fill="#2F6EBA"/>
</g>
</svg>
