<svg width="116" height="24" viewBox="0 0 116 24" fill="none" xmlns="http://www.w3.org/2000/svg">
<g clip-path="url(#clip0_0_40160)">
<path d="M12.1122 23.3187C18.7972 23.3187 24.2165 17.9876 24.2165 11.4113C24.2165 4.83504 18.7972 -0.496094 12.1122 -0.496094C5.42711 -0.496094 0.0078125 4.83504 0.0078125 11.4113C0.0078125 17.9876 5.42711 23.3187 12.1122 23.3187Z" fill="#CE2457"/>
<path fill-rule="evenodd" clip-rule="evenodd" d="M11.2518 4.46495C7.49556 4.76763 4.54297 7.86747 4.54297 11.6468C4.54297 15.6267 7.81716 18.853 11.856 18.853C15.8949 18.853 19.1691 15.6267 19.1691 11.6468C19.1691 7.86703 16.2158 4.76694 12.4589 4.46484L12.2619 9.19804C13.4594 9.38928 14.3737 10.4129 14.3737 11.6468C14.3737 13.017 13.2464 14.1277 11.856 14.1277C10.4655 14.1277 9.33829 13.017 9.33829 11.6468C9.33829 10.4132 10.252 9.39003 11.4488 9.19826L11.2518 4.46495Z" fill="white"/>
<path d="M12.1127 3.96904C12.9483 3.96904 13.6257 3.30265 13.6257 2.48061C13.6257 1.65858 12.9483 0.992188 12.1127 0.992188C11.277 0.992188 10.5996 1.65858 10.5996 2.48061C10.5996 3.30265 11.277 3.96904 12.1127 3.96904Z" fill="white"/>
<path d="M40.8543 11.6588C40.8543 13.3256 40.2389 14.6718 39.0764 15.7618C37.9138 16.8516 36.4777 17.3644 34.768 17.3644C33.0584 17.3644 31.6906 16.8516 30.4597 15.7618C29.3655 14.6718 28.75 13.3256 28.75 11.6588C28.75 9.99193 29.3655 8.64568 30.5281 7.55584C31.6907 6.466 33.1267 5.95312 34.768 5.95312C36.4093 5.95312 37.9138 6.466 39.0764 7.55584C40.2389 8.64568 40.8543 9.99193 40.8543 11.6588ZM38.5976 11.6588C38.5976 10.6972 38.2557 9.86372 37.5035 9.22263C36.8196 8.58154 35.8622 8.26099 34.768 8.26099C33.6739 8.26099 32.7848 8.58154 32.0325 9.22263C31.2803 9.86372 30.9384 10.6972 30.9384 11.6588C30.9384 12.6204 31.2803 13.4538 32.0325 14.0949C32.7164 14.736 33.6739 15.0565 34.768 15.0565C35.8622 15.0565 36.8196 14.736 37.5035 14.0949C38.2557 13.4538 38.5976 12.6204 38.5976 11.6588Z" fill="black"/>
<path d="M47.6786 16.8682H45.1905V8.44294H41.3574V6.44922H51.4444V8.44294H47.6786V16.8682Z" fill="black"/>
<path d="M57.4091 17.3644C55.6005 17.3644 54.1396 17.1076 52.957 16.5939V14.5393C54.2788 15.1171 55.67 15.374 57.0614 15.374C58.1048 15.374 58.8701 15.2456 59.4961 14.9887C60.0526 14.7319 60.4005 14.3466 60.4005 13.8972C60.4005 12.9983 59.5657 12.613 57.8266 12.613H55.67V10.751H57.8266C59.2875 10.751 59.9831 10.3658 59.9831 9.59537C59.9831 8.76066 59.0092 8.37538 57.1309 8.37538C55.8787 8.37538 54.6266 8.63226 53.3048 9.14593V7.15549C54.4875 6.70604 55.9483 6.44922 57.6874 6.44922C59.0788 6.44922 60.2614 6.70604 61.2353 7.21969C62.1396 7.73338 62.6266 8.43962 62.6266 9.21009C62.6266 10.3658 62.0005 11.1363 60.8179 11.5215C62.2787 11.971 63.044 12.8057 63.044 14.0898C63.044 15.0529 62.557 15.8876 61.5136 16.4655C60.4701 17.1076 59.0788 17.3644 57.4091 17.3644Z" fill="black"/>
<path d="M76.1629 11.6588C76.1629 13.3256 75.551 14.6718 74.3951 15.7618C73.239 16.8516 71.8109 17.3644 70.1108 17.3644C68.4107 17.3644 67.0507 16.8516 65.8266 15.7618C64.6706 14.6718 64.0586 13.3256 64.0586 11.6588C64.0586 9.99193 64.6706 8.64568 65.8266 7.55584C67.0507 6.466 68.4788 5.95312 70.1788 5.95312C71.8789 5.95312 73.307 6.466 74.463 7.55584C75.551 8.64568 76.1629 9.99193 76.1629 11.6588ZM73.987 11.6588C73.987 10.6972 73.647 9.86372 72.8989 9.22263C72.219 8.58154 71.2669 8.26099 70.1788 8.26099C69.0908 8.26099 68.2067 8.58154 67.4587 9.22263C66.7107 9.86372 66.3707 10.6972 66.3707 11.6588C66.3707 12.6204 66.7107 13.4538 67.4587 14.0949C68.1388 14.736 69.0908 15.0565 70.1788 15.0565C71.2669 15.0565 72.219 14.736 72.8989 14.0949C73.579 13.4538 73.987 12.6204 73.987 11.6588Z" fill="black"/>
<path d="M85.2694 16.8682H78.6836V6.44922H84.9298C86.0161 6.44922 86.8984 6.70648 87.5776 7.15671C88.2568 7.6069 88.5282 8.31433 88.5282 9.0861C88.5282 9.60063 88.3925 10.0508 88.1204 10.4368C87.849 10.8226 87.5094 11.1442 87.0341 11.3371C88.5282 11.723 89.2749 12.6234 89.2749 14.0384C89.2749 14.9388 88.9353 15.6462 88.1886 16.1607C87.5094 16.6109 86.5588 16.8682 85.2694 16.8682ZM81.1957 8.31433V10.6296H84.3188C84.8616 10.6296 85.2694 10.501 85.6083 10.3081C85.8804 10.1152 86.0836 9.7936 86.0836 9.47202C86.0836 8.70025 85.5408 8.31433 84.3863 8.31433H81.1957ZM81.1957 12.4305V15.0031H84.7941C85.4051 15.0031 85.8122 14.8744 86.1518 14.6815C86.4914 14.4242 86.6271 14.167 86.6271 13.7168C86.6271 13.3309 86.4914 13.0093 86.1518 12.7521C85.8122 12.4948 85.3369 12.4305 84.7941 12.4305H81.1957Z" fill="black"/>
<path d="M93.6755 16.8682H91.293V6.44922H93.8115V13.5238L100.006 6.44922H102.389V16.8682H99.8701V9.7936L93.6755 16.8682Z" fill="black"/>
<path d="M107.93 16.8682H105.408V6.44922H107.93V16.8682Z" fill="black"/>
<path d="M110.44 11.2246L115.499 16.3721H112.233L107.43 11.3486L111.913 6.44922H115.051L110.44 11.2246Z" fill="black"/>
</g>
<defs>
<clipPath id="clip0_0_40160">
<rect width="116" height="23.8148" fill="white"/>
</clipPath>
</defs>
</svg>
