<svg width="63" height="16" viewBox="0 0 63 16" fill="none" xmlns="http://www.w3.org/2000/svg">
<path d="M0.553211 0.995353H13.6722C13.9777 0.995353 14.2254 1.2385 14.2254 1.53844V4.07105C14.2254 4.4084 14.0763 4.72781 13.8167 4.94885L6.48047 10.9738H13.6722C13.9777 10.9738 14.2254 11.2125 14.2254 11.5124V14.4199C14.2254 14.7198 13.9777 14.963 13.6722 14.963H0.553211C0.247681 14.963 0 14.7198 0 14.4199V11.8914C0 11.5541 0.149118 11.2347 0.408715 11.0136L7.74495 4.98875H0.553211C0.247681 4.98875 0 4.74006 0 4.44012V1.53844C0 1.2385 0.247681 0.995353 0.553211 0.995353ZM23.3703 0.5C24.8872 0.5 26.2396 0.834871 27.3686 1.44683C28.4976 2.05878 29.4032 2.94782 30.0266 4.05615C30.65 5.16448 30.9911 6.49211 30.9911 7.98125C30.9911 9.47039 30.65 10.798 30.0266 11.9063C29.4032 13.0147 28.4976 13.9037 27.3686 14.5157C26.2396 15.1276 24.8872 15.4625 23.3703 15.4625C21.8534 15.4625 20.501 15.1276 19.372 14.5157C18.243 13.9037 17.3374 13.0147 16.714 11.9063C16.0907 10.798 15.7496 9.47039 15.7496 7.98125C15.7496 6.49211 16.0907 5.16448 16.714 4.05615C17.3374 2.94782 18.243 2.05878 19.372 1.44683C20.501 0.834871 21.8534 0.5 23.3703 0.5ZM23.3703 4.49C22.6447 4.49 22.0077 4.64047 21.4808 4.92025C20.954 5.20003 20.5372 5.60911 20.2522 6.12633C19.9672 6.64356 19.814 7.26892 19.814 7.98125C19.814 8.69358 19.9672 9.31894 20.2522 9.83617C20.5372 10.3534 20.954 10.7625 21.4808 11.0423C22.0077 11.322 22.6447 11.4725 23.3703 11.4725C24.0959 11.4725 24.733 11.322 25.2598 11.0423C25.7867 10.7625 26.2034 10.3534 26.4884 9.83617C26.7734 9.31894 26.9267 8.69358 26.9267 7.98125C26.9267 7.26892 26.7734 6.64356 26.4884 6.12633C26.2034 5.60911 25.7867 5.20003 25.2598 4.92025C24.733 4.64047 24.0959 4.49 23.3703 4.49ZM39.6279 0.5C41.1449 0.5 42.4972 0.834871 43.6262 1.44683C44.7552 2.05878 45.6609 2.94782 46.2842 4.05615C46.9076 5.16448 47.2487 6.49211 47.2487 7.98125C47.2487 9.47039 46.9076 10.798 46.2842 11.9063C45.6609 13.0147 44.7552 13.9037 43.6262 14.5157C42.4972 15.1276 41.1449 15.4625 39.6279 15.4625C38.111 15.4625 36.7587 15.1276 35.6297 14.5157C34.5006 13.9037 33.595 13.0147 32.9717 11.9063C32.3483 10.798 32.0072 9.47039 32.0072 7.98125C32.0072 6.49211 32.3483 5.16448 32.9717 4.05615C33.595 2.94782 34.5006 2.05878 35.6297 1.44683C36.7587 0.834871 38.111 0.5 39.6279 0.5ZM39.6279 4.49C38.9023 4.49 38.2653 4.64047 37.7384 4.92025C37.2116 5.20003 36.7949 5.60911 36.5099 6.12633C36.2249 6.64356 36.0716 7.26892 36.0716 7.98125C36.0716 8.69358 36.2249 9.31894 36.5099 9.83617C36.7949 10.3534 37.2116 10.7625 37.7384 11.0423C38.2653 11.322 38.9023 11.4725 39.6279 11.4725C40.3536 11.4725 40.9906 11.322 41.5175 11.0423C42.0443 10.7625 42.461 10.3534 42.746 9.83617C43.031 9.31894 43.1843 8.69358 43.1843 7.98125C43.1843 7.26892 43.031 6.64356 42.746 6.12633C42.461 5.60911 42.0443 5.20003 41.5175 4.92025C40.9906 4.64047 40.3536 4.49 39.6279 4.49ZM63 1.54016V14.4197C63 14.7196 62.7523 14.9628 62.4468 14.9628H59.8687C59.5251 14.9628 59.1997 14.8164 58.9745 14.5616L52.8373 7.36055V14.4197C52.8373 14.7196 52.584 14.9628 52.2784 14.9628H49.3244C49.0188 14.9628 48.7711 14.7196 48.7711 14.4197V1.54016C48.7711 1.24021 49.0188 0.997051 49.3244 0.997051H51.9024C52.2461 0.997051 52.5714 1.14348 52.7966 1.39838L58.9339 8.60195V1.54016C58.9339 1.24021 59.177 0.997051 59.4826 0.997051H62.4468C62.7523 0.997051 63 1.24021 63 1.54016Z" fill="url(#paint0_linear_0_40135)"/>
<defs>
<linearGradient id="paint0_linear_0_40135" x1="1.88091e-07" y1="10.1297" x2="62.9982" y2="9.81281" gradientUnits="userSpaceOnUse">
<stop offset="0.28523" stop-color="#3E3F53"/>
<stop offset="0.762079" stop-color="#5E3BEC"/>
</linearGradient>
</defs>
</svg>
