<svg width="32" height="32" viewBox="0 0 32 32" fill="none" xmlns="http://www.w3.org/2000/svg">
<path fill-rule="evenodd" clip-rule="evenodd" d="M26.3327 15.9987C26.3327 15.4464 25.885 14.9987 25.3327 14.9987H6.66602C6.11373 14.9987 5.66602 15.4464 5.66602 15.9987C5.66602 16.551 6.11373 16.9987 6.66602 16.9987H25.3327C25.885 16.9987 26.3327 16.551 26.3327 15.9987Z" fill="#30B5DF"/>
<path fill-rule="evenodd" clip-rule="evenodd" d="M26.3327 9.33203C26.3327 8.77975 25.885 8.33203 25.3327 8.33203H6.66602C6.11373 8.33203 5.66602 8.77975 5.66602 9.33203C5.66602 9.88432 6.11373 10.332 6.66602 10.332H25.3327C25.885 10.332 26.3327 9.88432 26.3327 9.33203Z" fill="#30B5DF"/>
<path fill-rule="evenodd" clip-rule="evenodd" d="M26.3327 22.6654C26.3327 22.1131 25.885 21.6654 25.3327 21.6654H6.66602C6.11373 21.6654 5.66602 22.1131 5.66602 22.6654C5.66602 23.2176 6.11373 23.6654 6.66602 23.6654H25.3327C25.885 23.6654 26.3327 23.2176 26.3327 22.6654Z" fill="#30B5DF"/>
</svg>
